<svg xmlns="http://www.w3.org/2000/svg" xmlns:xlink="http://www.w3.org/1999/xlink" width="500" zoomAndPan="magnify" viewBox="0 0 375 374.999991" height="500" preserveAspectRatio="xMidYMid meet" version="1.0"><defs><clipPath id="fa5997fe22"><path d="M 67.003906 183.203125 L 307.753906 183.203125 L 307.753906 316.703125 L 67.003906 316.703125 Z M 67.003906 183.203125 " clip-rule="nonzero"/></clipPath><clipPath id="aa04ea7b53"><path d="M 99.535156 70 L 248 70 L 248 183.351562 L 99.535156 183.351562 Z M 99.535156 70 " clip-rule="nonzero"/></clipPath></defs><rect x="-37.5" width="450" fill="#ffffff" y="-37.499999" height="449.999989" fill-opacity="1"/><rect x="-37.5" width="450" fill="#ffffff" y="-37.499999" height="449.999989" fill-opacity="1"/><g clip-path="url(#fa5997fe22)"><path fill="#000000" d="M 294.570312 242.222656 L 257.886719 229.808594 L 231.226562 200.441406 C 224.484375 193.015625 215.621094 189.089844 205.605469 189.089844 L 131.375 189.089844 C 121.746094 189.089844 113.4375 192.574219 106.683594 199.449219 L 72.535156 234.214844 C 68.851562 237.972656 66.976562 242.546875 66.976562 247.8125 L 66.976562 273.246094 C 66.976562 284.019531 75.71875 292.78125 86.46875 292.78125 L 95.402344 292.78125 C 97.117188 306.484375 108.808594 317.125 122.9375 317.125 C 137.066406 317.125 148.761719 306.484375 150.472656 292.78125 L 224.382812 292.78125 C 226.09375 306.484375 237.789062 317.125 251.917969 317.125 C 266.046875 317.125 277.738281 306.484375 279.453125 292.78125 L 288.21875 292.78125 C 298.96875 292.78125 307.710938 284.019531 307.710938 273.246094 L 307.710938 260.585938 C 307.722656 252.140625 302.558594 244.929688 294.570312 242.222656 Z M 226.089844 205.128906 L 248.046875 229.308594 L 190.824219 229.308594 L 190.824219 196.046875 L 205.601562 196.046875 C 213.730469 196.054688 220.621094 199.101562 226.089844 205.128906 Z M 134.394531 196.054688 L 183.878906 196.054688 L 183.878906 229.316406 L 146.625 229.316406 C 139.878906 229.316406 134.394531 223.816406 134.394531 217.054688 Z M 122.945312 310.167969 C 111.464844 310.167969 102.125 300.808594 102.125 289.304688 C 102.125 277.796875 111.464844 268.4375 122.945312 268.4375 C 134.421875 268.4375 143.761719 277.796875 143.761719 289.304688 C 143.761719 300.808594 134.421875 310.167969 122.945312 310.167969 Z M 251.921875 310.167969 C 240.441406 310.167969 231.105469 300.808594 231.105469 289.304688 C 231.105469 277.796875 240.441406 268.4375 251.921875 268.4375 C 263.402344 268.4375 272.738281 277.796875 272.738281 289.304688 C 272.738281 300.808594 263.402344 310.167969 251.921875 310.167969 Z M 300.777344 273.246094 C 300.777344 280.183594 295.148438 285.824219 288.226562 285.824219 L 279.460938 285.824219 C 277.75 272.121094 266.058594 261.480469 251.929688 261.480469 C 237.796875 261.480469 226.105469 272.121094 224.394531 285.824219 L 150.476562 285.824219 C 148.765625 272.121094 137.074219 261.480469 122.945312 261.480469 C 108.8125 261.480469 97.121094 272.121094 95.410156 285.824219 L 86.476562 285.824219 C 79.554688 285.824219 73.925781 280.183594 73.925781 273.246094 L 73.925781 247.8125 C 73.925781 244.386719 75.089844 241.539062 77.488281 239.097656 L 111.636719 204.332031 C 116.097656 199.792969 121.40625 197.109375 127.449219 196.308594 L 127.449219 217.050781 C 127.449219 227.644531 136.054688 236.265625 146.625 236.265625 L 255.277344 236.265625 L 292.347656 248.816406 C 297.46875 250.550781 300.777344 255.171875 300.777344 260.585938 Z M 122.945312 277.363281 C 116.371094 277.363281 111.03125 282.722656 111.03125 289.308594 C 111.03125 295.894531 116.375 301.25 122.945312 301.25 C 129.515625 301.25 134.863281 295.890625 134.863281 289.308594 C 134.863281 282.722656 129.515625 277.363281 122.945312 277.363281 Z M 122.945312 294.289062 C 120.199219 294.289062 117.972656 292.050781 117.972656 289.308594 C 117.972656 286.566406 120.207031 284.320312 122.945312 284.320312 C 125.679688 284.320312 127.917969 286.558594 127.917969 289.308594 C 127.917969 292.058594 125.6875 294.289062 122.945312 294.289062 Z M 251.921875 277.363281 C 245.347656 277.363281 240.003906 282.722656 240.003906 289.308594 C 240.003906 295.894531 245.347656 301.25 251.921875 301.25 C 258.496094 301.25 263.835938 295.890625 263.835938 289.308594 C 263.839844 282.722656 258.496094 277.363281 251.921875 277.363281 Z M 251.921875 294.289062 C 249.179688 294.289062 246.945312 292.050781 246.945312 289.308594 C 246.945312 286.566406 249.179688 284.320312 251.921875 284.320312 C 254.664062 284.320312 256.890625 286.558594 256.890625 289.308594 C 256.890625 292.058594 254.664062 294.289062 251.921875 294.289062 Z M 219.757812 257.015625 C 219.757812 258.933594 218.203125 260.496094 216.285156 260.496094 L 198.96875 260.496094 C 197.054688 260.496094 195.5 258.933594 195.5 257.015625 C 195.5 255.097656 197.054688 253.535156 198.96875 253.535156 L 216.285156 253.535156 C 218.203125 253.535156 219.757812 255.097656 219.757812 257.015625 Z M 176.6875 161.136719 L 184.214844 177.050781 C 184.789062 178.261719 186.007812 179.039062 187.351562 179.039062 C 188.695312 179.039062 189.914062 178.269531 190.488281 177.050781 L 198.015625 161.136719 C 211.949219 158.714844 224.699219 151.542969 234.085938 140.789062 C 243.976562 129.460938 249.429688 114.917969 249.429688 99.839844 C 249.429688 65.535156 221.582031 37.625 187.351562 37.625 C 153.121094 37.625 125.273438 65.535156 125.273438 99.839844 C 125.273438 114.917969 130.726562 129.460938 140.621094 140.789062 C 150.003906 151.535156 162.757812 158.714844 176.6875 161.136719 Z M 187.351562 44.582031 C 217.75 44.582031 242.484375 69.371094 242.484375 99.839844 C 242.484375 127.1875 222.148438 150.707031 195.175781 154.546875 C 194.015625 154.707031 193.027344 155.445312 192.523438 156.5 L 187.351562 167.4375 L 182.179688 156.5 C 181.683594 155.445312 180.6875 154.707031 179.53125 154.546875 C 152.554688 150.707031 132.21875 127.191406 132.21875 99.839844 C 132.21875 69.371094 156.953125 44.582031 187.351562 44.582031 Z M 185.90625 146.207031 C 185.917969 146.210938 185.929688 146.21875 185.941406 146.21875 C 186.019531 146.253906 186.101562 146.289062 186.1875 146.316406 C 186.21875 146.328125 186.246094 146.339844 186.277344 146.34375 C 186.367188 146.375 186.460938 146.402344 186.558594 146.421875 C 186.582031 146.425781 186.605469 146.433594 186.628906 146.4375 C 186.726562 146.460938 186.832031 146.472656 186.933594 146.492188 C 186.953125 146.492188 186.96875 146.496094 186.988281 146.496094 C 187.109375 146.507812 187.230469 146.515625 187.351562 146.515625 C 187.472656 146.515625 187.59375 146.507812 187.714844 146.496094 C 187.734375 146.496094 187.75 146.492188 187.769531 146.492188 C 187.871094 146.480469 187.976562 146.460938 188.074219 146.4375 C 188.097656 146.433594 188.121094 146.425781 188.144531 146.421875 C 188.242188 146.398438 188.335938 146.375 188.429688 146.34375 C 188.457031 146.335938 188.484375 146.324219 188.515625 146.316406 C 188.601562 146.289062 188.683594 146.253906 188.761719 146.21875 C 188.773438 146.210938 188.785156 146.207031 188.796875 146.207031 C 203.753906 139.328125 215.34375 119.628906 215.75 100.382812 C 216.128906 82.488281 206.507812 65.214844 189.359375 52.980469 C 189.355469 52.972656 189.34375 52.972656 189.335938 52.96875 C 189.203125 52.875 189.0625 52.792969 188.917969 52.71875 C 188.898438 52.707031 188.867188 52.695312 188.84375 52.683594 C 188.699219 52.613281 188.550781 52.550781 188.394531 52.503906 C 188.242188 52.457031 188.085938 52.421875 187.929688 52.394531 C 187.894531 52.386719 187.859375 52.382812 187.828125 52.375 C 187.675781 52.351562 187.519531 52.339844 187.359375 52.339844 C 187.351562 52.339844 187.351562 52.339844 187.347656 52.339844 C 187.191406 52.339844 187.035156 52.359375 186.878906 52.375 C 186.84375 52.382812 186.808594 52.386719 186.773438 52.394531 C 186.617188 52.421875 186.460938 52.457031 186.308594 52.503906 C 186.152344 52.554688 186.003906 52.613281 185.859375 52.683594 C 185.835938 52.695312 185.808594 52.707031 185.785156 52.71875 C 185.640625 52.792969 185.5 52.875 185.367188 52.96875 C 185.363281 52.972656 185.351562 52.972656 185.34375 52.980469 C 168.195312 65.214844 158.578125 82.496094 158.953125 100.382812 C 159.359375 119.628906 170.949219 139.328125 185.90625 146.207031 Z M 165.890625 100.234375 C 165.792969 95.507812 166.515625 90.816406 167.992188 86.269531 C 173.101562 93.089844 178.425781 98.175781 183.875 101.453125 L 183.875 136.964844 C 173.632812 129.488281 166.199219 114.757812 165.890625 100.234375 Z M 190.824219 136.964844 L 190.824219 123.09375 C 198.765625 118.882812 204.34375 112.0625 208.480469 104.808594 C 206.90625 117.773438 199.992188 130.277344 190.824219 136.964844 Z M 207.765625 90.109375 C 204.253906 98.863281 199.234375 108.933594 190.824219 114.933594 L 190.824219 62.992188 C 199.652344 70.777344 205.503906 80.175781 207.765625 90.109375 Z M 183.878906 62.992188 L 183.878906 93.015625 C 179.59375 89.652344 175.347656 84.894531 171.1875 78.785156 C 174.21875 73.089844 178.492188 67.742188 183.878906 62.992188 Z M 183.878906 62.992188 " fill-opacity="1" fill-rule="nonzero"/></g><g clip-path="url(#aa04ea7b53)"><path fill="#000000" d="M 245.378906 74.039062 C 244.570312 73.671875 225.128906 65.289062 207.277344 74.117188 C 192.382812 81.484375 173.386719 101.9375 179.5 122.546875 C 177.539062 126.726562 176.078125 131.089844 175.058594 135.609375 C 173.359375 129.367188 165.074219 103.398438 143.28125 93.710938 C 118.457031 82.6875 101.78125 96.765625 101.101562 97.367188 C 99.980469 98.332031 99.507812 99.847656 99.875 101.285156 C 100.003906 101.753906 111.921875 146.265625 159.535156 146.265625 C 162.382812 146.265625 165.363281 146.109375 168.5 145.769531 C 168.601562 145.769531 168.683594 145.71875 168.785156 145.71875 C 170.589844 148.824219 171.949219 152.144531 172.652344 155.589844 C 170.484375 182.890625 171.765625 205.378906 171.765625 205.640625 C 171.894531 207.730469 173.621094 209.324219 175.683594 209.324219 C 175.761719 209.324219 175.84375 209.324219 175.921875 209.324219 C 178.089844 209.195312 179.734375 207.339844 179.605469 205.171875 C 179.605469 204.882812 177.90625 175.128906 181.800781 142.792969 C 182.347656 138.273438 183.421875 133.960938 185.015625 129.785156 C 185.117188 129.785156 185.222656 129.835938 185.355469 129.835938 C 185.457031 129.835938 185.5625 129.835938 185.667969 129.835938 C 186.296875 129.785156 249.40625 124.480469 247.785156 77.433594 C 247.730469 75.945312 246.816406 74.585938 245.457031 73.988281 Z M 108.261719 101.886719 C 112.730469 99.117188 124.359375 93.867188 140.117188 100.867188 C 152.375 106.300781 159.769531 118.421875 163.796875 127.511719 C 151.171875 115.753906 136.042969 108.859375 135.023438 108.414062 C 133.0625 107.527344 130.738281 108.414062 129.847656 110.402344 C 128.960938 112.386719 129.847656 114.683594 131.835938 115.574219 C 132.097656 115.703125 151.277344 124.429688 163.402344 138.351562 C 124.699219 140.441406 111.398438 110.921875 108.261719 101.886719 Z M 188.90625 121.632812 C 195.128906 110.976562 205.214844 101.519531 219.378906 93.082031 C 221.234375 91.984375 221.835938 89.554688 220.738281 87.699219 C 219.640625 85.847656 217.210938 85.246094 215.355469 86.34375 C 202.863281 93.789062 193.246094 102.042969 186.398438 111.183594 C 188.308594 97.652344 201.921875 85.507812 210.78125 81.117188 C 215.617188 78.742188 220.683594 77.929688 225.3125 77.929688 C 231.53125 77.929688 236.964844 79.367188 239.890625 80.335938 C 239.003906 112.019531 201.320312 119.882812 188.882812 121.605469 Z M 188.90625 121.632812 " fill-opacity="1" fill-rule="nonzero"/></g></svg>